<svg width="24" height="24" viewBox="0 0 24 24" fill="none" xmlns="http://www.w3.org/2000/svg">
<path d="M12.0067 9.58931L5.77314 15.7676C5.63588 15.9038 5.46743 15.9766 5.26778 15.9858C5.06837 15.9953 4.89062 15.9225 4.73452 15.7676C4.57817 15.6128 4.5 15.4413 4.5 15.2528C4.5 15.0644 4.57817 14.8928 4.73452 14.7381L11.1766 8.35249C11.4139 8.1175 11.6906 8 12.0067 8C12.3229 8 12.5996 8.1175 12.8369 8.35249L19.279 14.7381C19.4165 14.8741 19.4899 15.0411 19.4992 15.239C19.5087 15.4366 19.4353 15.6128 19.279 15.7676C19.1229 15.9225 18.9498 16 18.7597 16C18.5695 16 18.3964 15.9225 18.2403 15.7676L12.0067 9.58931Z" fill="#808080"/>
</svg>
