<svg width="24" height="24" viewBox="0 0 24 24" fill="none" xmlns="http://www.w3.org/2000/svg">
<path d="M12.0046 10.3432L7.75836 14.5892C7.66486 14.6829 7.55011 14.7329 7.41411 14.7392C7.27828 14.7457 7.1572 14.6957 7.05086 14.5892C6.94436 14.4829 6.89111 14.365 6.89111 14.2355C6.89111 14.106 6.94436 13.9881 7.05086 13.8817L11.4391 9.49323C11.6008 9.33173 11.7893 9.25098 12.0046 9.25098C12.2199 9.25098 12.4084 9.33173 12.5701 9.49323L16.9584 13.8817C17.052 13.9752 17.102 14.09 17.1084 14.226C17.1149 14.3618 17.0649 14.4829 16.9584 14.5892C16.852 14.6957 16.7341 14.749 16.6046 14.749C16.4751 14.749 16.3572 14.6957 16.2509 14.5892L12.0046 10.3432Z" fill="#808080"/>
</svg>
